<svg width="173" height="32" viewBox="0 0 173 32" fill="none" xmlns="http://www.w3.org/2000/svg">
<path d="M155.927 15.6266C157.88 15.6266 157.862 15.6256 157.963 13.6735C158.026 12.4573 158.123 11.2411 158.254 10.0299C158.599 6.8479 158.68 7.3945 155.654 7.35057C155.061 7.34277 154.743 7.54383 154.697 8.21439C154.571 10.0006 154.414 11.7868 154.181 13.5622C153.909 15.6315 153.868 15.6266 155.927 15.6266ZM172.558 3.86409C172.407 4.84894 172.205 5.82792 172.114 6.81765C171.777 10.472 171.432 14.1264 171.179 17.7866C170.982 20.6435 169.655 21.9758 166.771 21.9797C162.758 21.9846 158.744 21.9983 154.73 21.968C153.868 21.9612 153.429 22.1076 153.364 23.1149C153.192 25.7698 152.876 28.4149 152.626 31.0649C152.578 31.5802 152.468 31.9414 151.8 31.9385C147.608 31.918 143.415 31.9277 139.057 31.9277C139.17 30.2967 139.256 28.7331 139.391 27.1743C139.731 23.232 140.094 19.2917 140.448 15.3503C140.884 10.4769 141.314 5.60245 141.784 0.732899C141.808 0.485956 142.17 0.25268 142.412 0.0564919C142.501 -0.0157356 142.695 0.0359955 142.841 0.0359955C151.16 0.0359955 159.48 0.0301361 167.8 0.0408726C170.193 0.0438004 171.967 0.939823 172.558 3.4317V3.86409Z" fill="white"/>
<path d="M49.7842 16.2371C49.9156 15.9677 50.0806 15.709 50.1725 15.426C51.4972 11.3509 52.8012 7.27002 54.1328 3.19693C54.8826 0.903194 56.0592 0.0452404 58.4844 0.0276718C61.4402 0.00522232 64.3979 0.0520706 67.3536 0.00326729C68.3029 -0.0123482 68.5509 0.331224 68.4669 1.2087C68.1034 5.00654 67.7803 8.80732 67.4425 12.6061C67.1234 16.1912 66.8004 19.7763 66.4862 23.3613C66.257 25.9781 66.0555 28.5988 65.7848 31.2118C65.7582 31.4665 65.3314 31.8813 65.0864 31.8833C61.0351 31.9262 56.9839 31.9057 52.9316 31.9214C52.1472 31.9253 52.1699 31.5026 52.2302 30.9297C52.6599 26.8507 53.0709 22.7698 53.4779 18.688C53.5046 18.4244 53.4473 18.154 53.4068 17.5518C53.1331 18.0818 52.9849 18.3083 52.8941 18.5562C51.5881 22.1061 50.2959 25.6619 48.986 29.2108C48.2738 31.1405 47.1782 31.9057 45.1205 31.9126C42.0551 31.9243 38.9877 31.8813 35.9223 31.9379C34.9849 31.9545 34.8041 31.5836 34.8811 30.7862C35.4541 24.8049 36.0231 18.8226 36.5704 12.8375C36.9053 9.18212 37.2165 5.52386 37.502 1.86461C37.6462 0.0237675 37.6096 0.0208397 39.458 0.0208397C42.9619 0.0208397 46.4669 0.0520725 49.9709 0.000341415C50.9539 -0.0133228 51.265 0.29023 51.1534 1.24286C50.7257 4.92358 50.3394 8.6082 49.9403 12.2918C49.8 13.5861 49.6686 14.8813 49.5333 16.1756C49.6173 16.1961 49.7002 16.2166 49.7842 16.2371Z" fill="white"/>
<path d="M88.0983 19.0163C88.1556 17.2731 88.1556 17.2721 86.3261 17.2731C85.9616 17.2731 85.5556 17.1823 85.2434 17.3102C84.9213 17.4419 84.4857 17.765 84.4501 18.0481C84.1804 20.1866 83.9927 22.3359 83.7912 24.4822C83.7388 25.0396 83.7309 25.7375 84.5499 25.5383C85.5783 25.2875 87.2014 26.4754 87.5748 24.7019C87.964 22.8512 87.9413 20.9147 88.0983 19.0163ZM85.1545 10.8789C87.7595 10.8789 90.2361 10.8789 92.7117 10.8789C94.4267 10.8789 96.1416 10.8643 97.8566 10.8828C100.67 10.9141 102.161 12.386 101.967 15.1531C101.654 19.6381 101.264 24.1201 100.816 28.5944C100.607 30.6997 99.1527 31.9276 97.0712 31.9305C88.2041 31.9432 79.3369 31.9374 70.4697 31.9354C70.2237 31.9344 69.9768 31.9022 69.6191 31.8769C69.7397 30.2429 69.8375 28.6715 69.9738 27.1039C70.3116 23.2339 70.6653 19.3638 71.016 15.4947C71.3499 11.8042 71.6887 8.11472 72.0236 4.42522C72.1244 3.31349 72.3022 2.20176 72.2923 1.091C72.2844 0.168627 72.7053 0.0163612 73.4916 0.031002C75.3883 0.064188 77.286 0.0407639 79.1838 0.0407639C86.7736 0.0407639 94.3644 0.0397873 101.954 0.0427151C103.306 0.0427151 103.382 0.157888 103.238 1.4619C103.075 2.92697 102.939 4.39691 102.835 5.86783C102.739 7.24212 102.668 7.34461 101.296 7.34656C96.516 7.34949 91.7357 7.34558 86.9554 7.34851C85.359 7.34949 85.3372 7.35339 85.1653 8.90142C85.0992 9.49779 85.1545 10.1069 85.1545 10.8789Z" fill="white"/>
<path d="M138.019 0.201574C137.802 2.76275 137.598 5.30245 137.373 7.83923C137.112 10.7781 136.833 13.7151 136.565 16.653C136.194 20.7007 135.858 24.7524 135.44 28.7962C135.256 30.5941 133.759 31.9186 131.955 31.9235C123.016 31.9469 114.076 31.9371 105.135 31.9323C104.893 31.9323 104.651 31.861 104.32 31.8093C104.532 29.6131 104.749 27.4746 104.936 25.3331C104.999 24.603 105.518 24.7202 105.974 24.7192C109.039 24.7143 112.105 24.7163 115.17 24.7163C117.213 24.7163 119.257 24.6967 121.3 24.726C121.97 24.7358 122.261 24.5035 122.391 23.8398C122.881 21.3264 122.744 21.1322 120.223 21.1322C116.72 21.1322 113.214 21.0502 109.715 21.1566C106.769 21.2473 105.39 19.1215 105.641 16.5271C106.036 12.4452 106.361 8.35654 106.722 4.27076C106.823 3.12487 106.954 1.98093 107.054 0.835037C107.104 0.258186 107.388 0.0346699 107.977 0.0375977C111.882 0.0522385 115.786 0.0561409 119.691 0.034668C120.431 0.0307636 120.649 0.330414 120.587 1.01365C120.319 3.95159 120.071 6.8905 119.818 9.82941C119.701 11.192 119.597 12.5555 119.471 13.9171C119.418 14.5028 119.615 14.7868 120.255 14.7702C123.487 14.6863 123.16 15.3412 123.391 12.1358C123.659 8.40534 124.084 4.68559 124.422 0.95997C124.468 0.445587 124.512 0.0405235 125.19 0.0424747C129.314 0.0561409 133.437 0.0532131 137.56 0.0619965C137.695 0.062973 137.829 0.142035 138.019 0.201574Z" fill="white"/>
<path d="M32.2754 17.9861C31.9276 21.5867 31.6471 25.1718 31.2114 28.7383C30.9575 30.8173 29.5903 31.9144 27.4585 31.9203C19.6483 31.9447 11.8372 31.9427 4.02606 31.9252C2.01771 31.9213 0.447975 30.4181 0.50132 28.4182C0.562569 26.1186 0.79966 23.8229 0.993283 21.5282C1.24519 18.5512 1.53662 15.5781 1.79742 12.6031C2.04241 9.8067 2.20738 7.00249 2.52054 4.21389C2.84654 1.32183 4.23944 0.124203 7.21789 0.0529518C9.18771 0.00512314 11.1595 0.0402622 13.1313 0.0402622C18.4965 0.0402622 23.8616 0.0470943 29.2278 0.038311C32.1785 0.0334301 33.7898 2.02263 33.4371 4.48133C33.3709 4.943 33.4114 5.41932 33.3699 5.8849C33.1674 8.1435 32.9115 10.3972 32.7663 12.6587C32.712 13.503 32.4226 13.7705 31.5789 13.7627C27.7835 13.7285 23.9871 13.7148 20.1917 13.7695C19.187 13.7841 19.02 13.382 19.1198 12.5475C19.2858 11.1537 19.3905 9.75399 19.5446 8.35921C19.6187 7.68573 19.3974 7.34703 18.6654 7.34899C15.3204 7.3568 15.8272 7.04251 15.6198 9.87015C15.2918 14.3551 14.8018 18.8284 14.3849 23.3066C14.2595 24.6584 14.3108 24.7053 15.6899 24.714C18.0411 24.7277 18.0341 24.7267 18.2475 22.4232C18.368 21.1329 18.4737 19.8396 18.6822 18.5619C18.7286 18.2769 19.1751 17.8397 19.4409 17.8367C23.6008 17.7977 27.7608 17.8192 31.9217 17.8309C31.9859 17.8309 32.0511 17.8846 32.2754 17.9861Z" fill="white"/>
</svg>
